PathFileType	4	(X/Y/Z) abd_2kg_3.trc																										
DataRate	CameraRate	NumFrames	NumMarkers	Units	OrigDataRate	OrigDataStartFrame	OrigNumFrames																					
100	100	49	9	mm	100	1	938																					
Frame#	Time	gu			centelbow			EpL			centpxt8			centijc7			ij			ts			aa			ai		
		X1	Y1	Z1	X2	Y2	Z2	X3	Y3	Z3	X4	Y4	Z4	X5	Y5	Z5	X6	Y6	Z6	X7	Y7	Z7	X8	Y8	Z8	X9	Y9	Z9  
0	0	-96.688	-9.36	159.915	-138.985	-251.026	188.077	-143.834	-242.517	218.793	-46.816	-153.158	-8.669	-46.816	31.938	-8.669	0	0	0	-128.306	29.297	37.305	-126.407	28.338	156.554	-146.116	-82.718	41.901
1	0.01	-96.683	-9.317	159.882	-138.989	-250.981	188.045	-143.837	-242.472	218.762	-46.816	-153.158	-8.669	-46.816	31.938	-8.669	0	0	0	-128.469	29.285	37.176	-126.562	28.337	156.425	-146.292	-82.728	41.783
2	0.02	-96.665	-9.285	159.819	-138.982	-250.947	187.983	-143.826	-242.438	218.701	-46.816	-153.158	-8.669	-46.816	31.938	-8.669	0	0	0	-128.585	29.272	37.044	-126.668	28.335	156.293	-146.417	-82.738	41.664
3	0.03	-96.648	-9.248	159.799	-138.969	-250.91	187.957	-143.81	-242.402	218.676	-46.816	-153.158	-8.669	-46.816	31.938	-8.669	0	0	0	-128.607	29.29	37.003	-126.68	28.362	156.252	-146.438	-82.72	41.633
4	0.04	-96.653	-9.231	159.831	-138.975	-250.894	187.978	-143.818	-242.387	218.696	-46.816	-153.158	-8.669	-46.816	31.938	-8.669	0	0	0	-128.576	29.304	37.039	-126.651	28.378	156.288	-146.407	-82.706	41.67
5	0.05	-96.675	-9.263	159.863	-139.008	-250.926	187.992	-143.855	-242.421	218.71	-46.816	-153.158	-8.669	-46.816	31.938	-8.669	0	0	0	-128.533	29.276	37.093	-126.621	28.345	156.342	-146.369	-82.733	41.716
6	0.06	-96.685	-9.297	159.876	-139.037	-250.959	187.984	-143.888	-242.455	218.702	-46.816	-153.158	-8.669	-46.816	31.938	-8.669	0	0	0	-128.492	29.245	37.141	-126.592	28.306	156.39	-146.337	-82.763	41.756
7	0.07	-96.669	-9.279	159.881	-139.035	-250.941	187.966	-143.886	-242.44	218.684	-46.816	-153.158	-8.669	-46.816	31.938	-8.669	0	0	0	-128.459	29.245	37.16	-126.557	28.297	156.409	-146.308	-82.763	41.767
8	0.08	-96.646	-9.24	159.886	-139.005	-250.906	187.952	-143.855	-242.408	218.672	-46.816	-153.158	-8.669	-46.816	31.938	-8.669	0	0	0	-128.443	29.243	37.151	-126.534	28.289	156.4	-146.289	-82.766	41.754
9	0.09	-96.639	-9.22	159.907	-138.972	-250.891	187.968	-143.822	-242.394	218.688	-46.816	-153.158	-8.669	-46.816	31.938	-8.669	0	0	0	-128.476	29.239	37.183	-126.57	28.288	156.431	-146.308	-82.772	41.788
10	0.1	-96.645	-9.204	159.94	-138.952	-250.878	188.012	-143.803	-242.38	218.732	-46.816	-153.158	-8.669	-46.816	31.938	-8.669	0	0	0	-128.535	29.263	37.264	-126.641	28.324	156.513	-146.349	-82.751	41.878
11	0.11	-96.619	-9.175	159.94	-138.909	-250.85	188.031	-143.76	-242.35	218.749	-46.816	-153.158	-8.669	-46.816	31.938	-8.669	0	0	0	-128.521	29.28	37.31	-126.63	28.351	156.559	-146.322	-82.735	41.932
12	0.12	-96.506	-9.157	159.898	-138.785	-250.832	188.004	-143.634	-242.331	218.723	-46.816	-153.158	-8.669	-46.816	31.938	-8.669	0	0	0	-128.392	29.265	37.318	-126.498	28.334	156.567	-146.193	-82.75	41.94
13	0.13	-96.333	-9.157	159.871	-138.598	-250.834	187.983	-143.445	-242.333	218.702	-46.816	-153.158	-8.669	-46.816	31.938	-8.669	0	0	0	-128.207	29.274	37.366	-126.315	28.337	156.616	-146.012	-82.741	41.982
14	0.14	-96.2	-9.16	159.83	-138.439	-250.842	187.941	-143.285	-242.341	218.661	-46.816	-153.158	-8.669	-46.816	31.938	-8.669	0	0	0	-128.023	29.356	37.411	-126.139	28.414	156.66	-145.821	-82.66	42.02
15	0.15	-96.185	-9.15	159.722	-138.404	-250.836	187.83	-143.251	-242.336	218.549	-46.816	-153.158	-8.669	-46.816	31.938	-8.669	0	0	0	-127.909	29.452	37.36	-126.029	28.507	156.61	-145.69	-82.567	41.966
16	0.16	-96.307	-9.095	159.658	-138.537	-250.778	187.763	-143.388	-242.278	218.482	-46.816	-153.158	-8.669	-46.816	31.938	-8.669	0	0	0	-127.963	29.476	37.277	-126.089	28.53	156.526	-145.738	-82.544	41.881
17	0.17	-96.48	-9.013	159.734	-138.749	-250.69	187.842	-143.605	-242.188	218.559	-46.816	-153.158	-8.669	-46.816	31.938	-8.669	0	0	0	-128.17	29.438	37.278	-126.314	28.494	156.527	-145.948	-82.582	41.881
18	0.18	-96.547	-9.012	159.839	-138.86	-250.681	187.945	-143.722	-242.177	218.661	-46.816	-153.158	-8.669	-46.816	31.938	-8.669	0	0	0	-128.377	29.401	37.353	-126.544	28.461	156.603	-146.159	-82.618	41.956
19	0.19	-96.477	-9.089	159.833	-138.823	-250.754	187.925	-143.687	-242.251	218.641	-46.816	-153.158	-8.669	-46.816	31.938	-8.669	0	0	0	-128.473	29.396	37.395	-126.654	28.458	156.646	-146.268	-82.621	41.998
20	0.2	-96.436	-9.102	159.718	-138.78	-250.768	187.804	-143.645	-242.265	218.52	-46.816	-153.158	-8.669	-46.816	31.938	-8.669	0	0	0	-128.467	29.427	37.342	-126.648	28.49	156.592	-146.281	-82.587	41.946
21	0.21	-96.564	-8.993	159.619	-138.877	-250.663	187.715	-143.743	-242.16	218.431	-46.816	-153.158	-8.669	-46.816	31.938	-8.669	0	0	0	-128.397	29.479	37.247	-126.572	28.542	156.497	-146.218	-82.533	41.852
22	0.22	-96.775	-8.85	159.661	-139.063	-250.524	187.769	-143.936	-242.018	218.483	-46.816	-153.158	-8.669	-46.816	31.938	-8.669	0	0	0	-128.286	29.497	37.222	-126.466	28.562	156.472	-146.105	-82.516	41.829
23	0.23	-96.885	-8.777	159.81	-139.188	-250.448	187.919	-144.067	-241.941	218.632	-46.816	-153.158	-8.669	-46.816	31.938	-8.669	0	0	0	-128.188	29.439	37.298	-126.389	28.508	156.549	-146.012	-82.573	41.905
24	0.24	-96.864	-8.831	159.889	-139.217	-250.494	187.992	-144.101	-241.986	218.703	-46.816	-153.158	-8.669	-46.816	31.938	-8.669	0	0	0	-128.147	29.324	37.395	-126.371	28.393	156.646	-145.992	-82.685	41.999
25	0.25	-96.825	-8.995	159.828	-139.236	-250.649	187.918	-144.122	-242.141	218.629	-46.816	-153.158	-8.669	-46.816	31.938	-8.669	0	0	0	-128.202	29.186	37.47	-126.443	28.25	156.721	-146.07	-82.82	42.067
26	0.26	-96.879	-9.154	159.733	-139.33	-250.803	187.802	-144.218	-242.296	218.513	-46.816	-153.158	-8.669	-46.816	31.938	-8.669	0	0	0	-128.41	29.071	37.554	-126.669	28.13	156.805	-146.287	-82.934	42.144
27	0.27	-97.019	-9.211	159.708	-139.492	-250.859	187.753	-144.384	-242.354	218.464	-46.816	-153.158	-8.669	-46.816	31.938	-8.669	0	0	0	-128.705	29.036	37.626	-126.983	28.096	156.877	-146.578	-82.969	42.214
28	0.28	-97.1	-9.196	159.729	-139.601	-250.84	187.764	-144.497	-242.335	218.474	-46.816	-153.158	-8.669	-46.816	31.938	-8.669	0	0	0	-128.884	29.082	37.632	-127.165	28.148	156.884	-146.756	-82.923	42.226
29	0.29	-97.027	-9.171	159.745	-139.577	-250.807	187.785	-144.473	-242.3	218.494	-46.816	-153.158	-8.669	-46.816	31.938	-8.669	0	0	0	-128.864	29.165	37.604	-127.13	28.241	156.855	-146.739	-82.839	42.209
30	0.3	-96.917	-9.149	159.784	-139.52	-250.775	187.822	-144.419	-242.267	218.531	-46.816	-153.158	-8.669	-46.816	31.938	-8.669	0	0	0	-128.755	29.279	37.611	-127.011	28.362	156.862	-146.628	-82.725	42.223
31	0.31	-96.93	-9.129	159.858	-139.577	-250.75	187.874	-144.483	-242.242	218.582	-46.816	-153.158	-8.669	-46.816	31.938	-8.669	0	0	0	-128.664	29.4	37.662	-126.929	28.478	156.913	-146.53	-82.606	42.269
32	0.32	-97.031	-9.106	159.921	-139.711	-250.726	187.901	-144.623	-242.221	218.608	-46.816	-153.158	-8.669	-46.816	31.938	-8.669	0	0	0	-128.563	29.436	37.703	-126.846	28.505	156.955	-146.427	-82.57	42.298
33	0.33	-97.075	-9.027	159.946	-139.76	-250.648	187.903	-144.679	-242.144	218.61	-46.816	-153.158	-8.669	-46.816	31.938	-8.669	0	0	0	-128.435	29.351	37.694	-126.737	28.418	156.946	-146.309	-82.654	42.285
34	0.34	-97.043	-8.852	159.947	-139.704	-250.476	187.909	-144.63	-241.972	218.614	-46.816	-153.158	-8.669	-46.816	31.938	-8.669	0	0	0	-128.365	29.225	37.659	-126.685	28.3	156.911	-146.257	-82.776	42.255
35	0.35	-97.021	-8.68	159.929	-139.658	-250.308	187.903	-144.593	-241.801	218.607	-46.816	-153.158	-8.669	-46.816	31.938	-8.669	0	0	0	-128.384	29.16	37.638	-126.717	28.241	156.891	-146.291	-82.839	42.238
36	0.36	-97.035	-8.682	159.892	-139.695	-250.307	187.856	-144.635	-241.8	218.558	-46.816	-153.158	-8.669	-46.816	31.938	-8.669	0	0	0	-128.414	29.175	37.619	-126.757	28.25	156.871	-146.328	-82.823	42.211
37	0.37	-97.053	-8.869	159.861	-139.784	-250.486	187.784	-144.726	-241.982	218.488	-46.816	-153.158	-8.669	-46.816	31.938	-8.669	0	0	0	-128.418	29.216	37.571	-126.765	28.276	156.824	-146.333	-82.783	42.149
38	0.38	-97.056	-9.085	159.84	-139.857	-250.694	187.722	-144.798	-242.194	218.426	-46.816	-153.158	-8.669	-46.816	31.938	-8.669	0	0	0	-128.457	29.216	37.511	-126.807	28.267	156.764	-146.373	-82.783	42.081
39	0.39	-97.065	-9.201	159.817	-139.884	-250.809	187.69	-144.824	-242.309	218.394	-46.816	-153.158	-8.669	-46.816	31.938	-8.669	0	0	0	-128.614	29.187	37.489	-126.963	28.243	156.741	-146.526	-82.813	42.063
40	0.4	-97.095	-9.208	159.82	-139.877	-250.819	187.721	-144.818	-242.316	218.425	-46.816	-153.158	-8.669	-46.816	31.938	-8.669	0	0	0	-128.843	29.177	37.549	-127.19	28.247	156.801	-146.747	-82.823	42.135
41	0.41	-97.1	-9.172	159.866	-139.843	-250.785	187.806	-144.788	-242.278	218.508	-46.816	-153.158	-8.669	-46.816	31.938	-8.669	0	0	0	-128.957	29.168	37.683	-127.308	28.25	156.936	-146.861	-82.832	42.281
42	0.42	-97.058	-9.126	159.915	-139.797	-250.737	187.875	-144.746	-242.227	218.576	-46.816	-153.158	-8.669	-46.816	31.938	-8.669	0	0	0	-128.842	29.134	37.813	-127.208	28.221	157.066	-146.759	-82.864	42.414
43	0.43	-97.059	-9.042	159.959	-139.819	-250.65	187.912	-144.772	-242.14	218.611	-46.816	-153.158	-8.669	-46.816	31.938	-8.669	0	0	0	-128.638	29.103	37.869	-127.018	28.189	157.122	-146.565	-82.893	42.467
44	0.44	-97.166	-8.942	160.054	-139.947	-250.55	187.978	-144.909	-242.041	218.676	-46.816	-153.158	-8.669	-46.816	31.938	-8.669	0	0	0	-128.54	29.093	37.855	-126.927	28.177	157.108	-146.471	-82.903	42.451
45	0.45	-97.278	-8.875	160.201	-140.07	-250.484	188.097	-145.044	-241.977	218.794	-46.816	-153.158	-8.669	-46.816	31.938	-8.669	0	0	0	-128.514	29.117	37.829	-126.912	28.202	157.083	-146.449	-82.878	42.424
46	0.46	-97.276	-8.823	160.302	-140.059	-250.435	188.186	-145.047	-241.928	218.881	-46.816	-153.158	-8.669	-46.816	31.938	-8.669	0	0	0	-128.411	29.184	37.847	-126.833	28.27	157.1	-146.348	-82.81	42.438
47	0.47	-97.146	-8.771	160.304	-139.908	-250.387	188.19	-144.906	-241.878	218.882	-46.816	-153.158	-8.669	-46.816	31.938	-8.669	0	0	0	-128.208	29.257	37.877	-126.659	28.343	157.131	-146.138	-82.739	42.464
48	0.48	-96.996	-8.754	160.272	-139.736	-250.373	188.163	-144.742	-241.863	218.855	-46.816	-153.158	-8.669	-46.816	31.938	-8.669	0	0	0	-128.062	29.287	37.836	-126.532	28.376	157.091	-145.973	-82.712	42.423
